<svg enable-background="new 0 0 512.262 512.262" height="512" viewBox="0 0 512.262 512.262" width="512" xmlns="http://www.w3.org/2000/svg">
    <path fill="#ffffff" d="m149.419 218.502-142.971 101.482c-7.591 5.388-8.471 16.292-1.924 22.838l110.219 110.219 56.907-85.361c4.596-6.893 13.909-8.754 20.801-4.161 6.893 4.596 8.756 13.909 4.161 20.801l-60.236 90.353 33.197 33.197c6.735 6.736 17.979 5.561 23.176-2.421l96.078-147.54z" />
    <path fill="#ffffff" d="m507.736 4.394c-5.857-5.858-15.355-5.858-21.213 0l-196.65 196.65c-33.96-26.798-82.099-27.079-116.378-.89l133.09 133.09c24.623-32.228 25.864-76.707 3.655-110.14l197.496-197.497c5.858-5.858 5.858-15.355 0-21.213z" />
</svg>
