<svg xmlns="http://www.w3.org/2000/svg" viewBox="0 0 22.93 22.32">
    <path fill="#ffffff" d="M7.32,17.53a2.4,2.4,0,1,0,2.39,2.39A2.39,2.39,0,0,0,7.32,17.53Zm0,3.72a1.33,1.33,0,1,1,1.33-1.33A1.32,1.32,0,0,1,7.32,21.25Z" />
    <path fill="#ffffff" d="M17.42,17.53a2.4,2.4,0,1,0,2.4,2.39A2.39,2.39,0,0,0,17.42,17.53Zm0,3.72a1.33,1.33,0,1,1,1.33-1.33A1.33,1.33,0,0,1,17.42,21.25Z" />
    <path fill="#ffffff" d="M22.82,3.56a.68.68,0,0,0-.42-.21L5.08,3.11,4.6,1.65A2.44,2.44,0,0,0,2.31,0H.53A.53.53,0,0,0,0,.53a.53.53,0,0,0,.53.53H2.31A1.4,1.4,0,0,1,3.59,2L7,12.18l-.27.61a2.61,2.61,0,0,0,.24,2.32,2.52,2.52,0,0,0,2,1.12H19.29a.54.54,0,0,0,0-1.07H8.94a1.35,1.35,0,0,1-1.12-.64,1.43,1.43,0,0,1-.13-1.27l.21-.48L19.1,11.6a2.94,2.94,0,0,0,2.53-2.24L22.9,4A.45.45,0,0,0,22.82,3.56ZM20.59,9.12A1.8,1.8,0,0,1,19,10.53L7.9,11.68,5.43,4.18l16.3.24Z" />
</svg>