<svg xmlns="http://www.w3.org/2000/svg" viewBox="0 0 301.78 94.63"><defs><style>.cls-1{fill:#fff;}</style></defs><g id="Capa_2" data-name="Capa 2"><g id="Desktop"><g id="Header"><path class="cls-1" d="M41,94.63,0,71V23.66L41,0,82,23.66V71ZM2,69.82l39,22.5,39-22.5v-45L41,2.31,2,24.81Z"/><path class="cls-1" d="M125.35,57h-3.59V45.35l-6.3,11.09a1.44,1.44,0,0,1-.65.64,1.86,1.86,0,0,1-.89.22,1.76,1.76,0,0,1-.87-.22,1.52,1.52,0,0,1-.64-.64l-6.33-11.09V57h-3.55V38.94a1.76,1.76,0,0,1,.36-1.09,1.74,1.74,0,0,1,1-.64,1.58,1.58,0,0,1,.57-.05,1.75,1.75,0,0,1,.56.12,1.66,1.66,0,0,1,.48.29,1.58,1.58,0,0,1,.37.44l8.1,14.07L122,38a1.8,1.8,0,0,1,.87-.74,1.88,1.88,0,0,1,1.15-.06,1.8,1.8,0,0,1,1.32,1.73Z"/><path class="cls-1" d="M132.69,39.22h-3.56V36h3.56Zm0,17.81h-3.56V42.25h3.56Z"/><path class="cls-1" d="M139.7,57h-3.55V36h3.55Zm13.76,0h-5.13l-7.17-6.92a1.66,1.66,0,0,1-.56-1.36,1.93,1.93,0,0,1,.2-.72,1.73,1.73,0,0,1,.47-.57l6.5-5.24h5.69L145.09,49Z"/><path class="cls-1" d="M170.87,47.15a5.27,5.27,0,0,1-.26,1.59,4.56,4.56,0,0,1-.84,1.58,4.68,4.68,0,0,1-1.52,1.23A4.79,4.79,0,0,1,166,52h-6.41V48.66H166a1.42,1.42,0,0,0,1.12-.44,1.62,1.62,0,0,0,.4-1.1,1.4,1.4,0,0,0-.45-1.1,1.55,1.55,0,0,0-1.07-.39h-6.41a1.42,1.42,0,0,0-1.12.44,1.59,1.59,0,0,0-.4,1.1v5a1.41,1.41,0,0,0,.44,1.1,1.59,1.59,0,0,0,1.1.4H166V57h-6.41a5.61,5.61,0,0,1-1.6-.26,4.69,4.69,0,0,1-2.81-2.36,4.91,4.91,0,0,1-.49-2.27v-5a5.61,5.61,0,0,1,.26-1.6,4.56,4.56,0,0,1,.84-1.58,4.78,4.78,0,0,1,1.52-1.23,4.93,4.93,0,0,1,2.28-.49H166a5.6,5.6,0,0,1,1.59.26,4.69,4.69,0,0,1,1.59.84,4.9,4.9,0,0,1,1.22,1.52A4.8,4.8,0,0,1,170.87,47.15Z"/><path class="cls-1" d="M175.17,45.14h-2.49l1.26-6.89h3.36Z"/><path class="cls-1" d="M193.81,52a5.31,5.31,0,0,1-.23,1.65A4.74,4.74,0,0,1,193,55a4.25,4.25,0,0,1-.89,1,5,5,0,0,1-1.06.63,4.71,4.71,0,0,1-1.12.36,5.25,5.25,0,0,1-1.08.12H179.2V53.48h9.6a1.51,1.51,0,0,0,1.09-.37,1.45,1.45,0,0,0,.37-1.07,1.3,1.3,0,0,0-1.44-1.42h-5.51a4.47,4.47,0,0,1-2-.41,4.11,4.11,0,0,1-1.33-1,3.78,3.78,0,0,1-.74-1.32,4.48,4.48,0,0,1-.23-1.33,4.2,4.2,0,0,1,.43-2,4,4,0,0,1,1.06-1.32,4.08,4.08,0,0,1,1.4-.73,4.92,4.92,0,0,1,1.4-.23h8.74v3.56h-8.71a1.27,1.27,0,0,0-.43.06.5.5,0,0,0-.23.16.47.47,0,0,0-.09.22,1.77,1.77,0,0,0,0,.23.66.66,0,0,0,.08.34.42.42,0,0,0,.17.18.77.77,0,0,0,.23.06h5.76a5,5,0,0,1,2.33.5,4.53,4.53,0,0,1,1.54,1.23,5.07,5.07,0,0,1,.86,1.62A5.57,5.57,0,0,1,193.81,52Z"/><path class="cls-1" d="M228.62,57H225V45.35l-6.3,11.09a1.49,1.49,0,0,1-.65.64,1.87,1.87,0,0,1-.9.22,1.69,1.69,0,0,1-.86-.22,1.47,1.47,0,0,1-.64-.64l-6.33-11.09V57H205.8V38.94a1.77,1.77,0,0,1,.37-1.09,1.74,1.74,0,0,1,1-.64,1.58,1.58,0,0,1,.57-.05,1.81,1.81,0,0,1,.56.12,2,2,0,0,1,.48.29,1.58,1.58,0,0,1,.37.44l8.09,14.07L225.29,38a1.8,1.8,0,0,1,.87-.74,1.87,1.87,0,0,1,1.15-.06,1.76,1.76,0,0,1,.94.64,1.71,1.71,0,0,1,.37,1.09Z"/><path class="cls-1" d="M248.16,47.15a5.6,5.6,0,0,1-.26,1.59,4.56,4.56,0,0,1-.84,1.58,4.68,4.68,0,0,1-1.52,1.23,4.79,4.79,0,0,1-2.27.49h-6.42V48.66h6.42a1.42,1.42,0,0,0,1.12-.44,1.61,1.61,0,0,0,.39-1.1,1.42,1.42,0,0,0-.44-1.1,1.59,1.59,0,0,0-1.07-.39h-6.42a1.45,1.45,0,0,0-1.12.44,1.63,1.63,0,0,0-.39,1.1v5a1.38,1.38,0,0,0,.44,1.1,1.57,1.57,0,0,0,1.1.4h6.39V57h-6.42a5.6,5.6,0,0,1-1.59-.26,4.69,4.69,0,0,1-1.59-.84A4.65,4.65,0,0,1,232,52.14v-5a5.61,5.61,0,0,1,.26-1.6,4.56,4.56,0,0,1,.84-1.58,4.68,4.68,0,0,1,1.52-1.23,4.91,4.91,0,0,1,2.27-.49h6.42a5.6,5.6,0,0,1,1.59.26,4.56,4.56,0,0,1,1.58.84,4.62,4.62,0,0,1,1.72,3.8Z"/><path class="cls-1" d="M264.87,57h-9.64a5.79,5.79,0,0,1-1.61-.26,4.67,4.67,0,0,1-1.62-.85,4.82,4.82,0,0,1-1.25-1.55,5,5,0,0,1-.5-2.33V47.23a5.16,5.16,0,0,1,.12-1.07,6,6,0,0,1,.36-1.11,4.83,4.83,0,0,1,.64-1.06,4,4,0,0,1,.94-.89,4.76,4.76,0,0,1,1.28-.62,5.51,5.51,0,0,1,1.64-.23h9.64v3.56h-9.64a1.43,1.43,0,0,0-1.06.35,1.48,1.48,0,0,0-.36,1.09V52a1.45,1.45,0,0,0,.37,1.07,1.47,1.47,0,0,0,1.08.37h9.61Z"/><path class="cls-1" d="M271.42,57h-3.56V36h3.56Zm12.82,0h-3.55v-9.8a1.27,1.27,0,0,0-1.43-1.42h-6.41V42.25h6.41a5.56,5.56,0,0,1,2.18.48,4.83,4.83,0,0,1,1.06.64,3.8,3.8,0,0,1,.89.94,4.76,4.76,0,0,1,.62,1.28,5.51,5.51,0,0,1,.23,1.64Z"/><path class="cls-1" d="M301.78,52a5.62,5.62,0,0,1-.23,1.65,4.76,4.76,0,0,1-.62,1.28,4,4,0,0,1-.89,1,5,5,0,0,1-1.05.63,4.79,4.79,0,0,1-1.13.36,5.08,5.08,0,0,1-1.07.12h-9.62V53.48h9.59a1.52,1.52,0,0,0,1.1-.37,1.49,1.49,0,0,0,.37-1.07,1.3,1.3,0,0,0-1.44-1.42h-5.51a4.44,4.44,0,0,1-2-.41,4.16,4.16,0,0,1-1.34-1,4,4,0,0,1-.74-1.32,4.45,4.45,0,0,1-.22-1.33,4.32,4.32,0,0,1,.42-2,4,4,0,0,1,1.07-1.32,4.13,4.13,0,0,1,1.39-.73,4.93,4.93,0,0,1,1.41-.23H300v3.56h-8.71a1.23,1.23,0,0,0-.43.06.45.45,0,0,0-.23.16.47.47,0,0,0-.09.22,1.79,1.79,0,0,0,0,.23.94.94,0,0,0,.08.34.52.52,0,0,0,.18.18.7.7,0,0,0,.23.06h5.76a5,5,0,0,1,2.33.5,4.63,4.63,0,0,1,1.54,1.23,4.85,4.85,0,0,1,.85,1.62A5.6,5.6,0,0,1,301.78,52Z"/><path class="cls-1" d="M38.38,70.13c-.21,0-.54-.39-.75-.93a6,6,0,0,0-3.43-3,10.76,10.76,0,0,0-6.23.14c-1.44.56-3.2,2.23-3.2,3.07a.62.62,0,0,1-.47.6.63.63,0,0,0-.46.68v.55l7.38,0,7.37-.07.07-.51C38.7,70.3,38.61,70.13,38.38,70.13Z"/><path class="cls-1" d="M46.37,51.32v3h.81c.74,0,.81,0,.81.69s.1.7.47.7.46.16.46,1.51c0,.86-.09,1.51-.23,1.51s-.23.74-.23,1.74c0,1.54-.07,1.79-.58,2.3a2,2,0,0,0-.58,1.77c0,1.16,0,1.16.65,1a21.9,21.9,0,0,1,5.83,0l.79.19-.12-1.19a2.8,2.8,0,0,0-.63-1.72c-.41-.46-.48-.81-.48-2.3,0-1.18-.1-1.79-.28-1.88-.44-.16-.26-3,.18-3,.21,0,.33-.25.33-.7s.11-.69.23-.69a1.9,1.9,0,0,0,.81-.58c.56-.54.58-.7.58-3.46A26.13,26.13,0,0,0,55.06,47c-.33-.84-1.33-1-5.09-1h-3.6v3H43.44l.09-.82c.1-.72.19-.81.77-.81s.67,0,.67-1v-1H37.25a7.85,7.85,0,0,0,0,1.46c.07.49.23.63.65.63s.56.14.56.44a2.92,2.92,0,0,0,.14.81c.12.33-.09.38-1.39.38H35.68V46l-4,.07c-5,.09-4.85-.07-4.85,3.9,0,3.07.18,3.84,1,4.23a.87.87,0,0,1,.58.93c0,.49.12.65.47.65s.46.16.46,1.37a3,3,0,0,1-.23,1.53A4.42,4.42,0,0,0,29,60.45c0,1.41-.07,1.72-.56,2.23s-.67,1-.63,2.3c0,.69.07.74.68.58a14.32,14.32,0,0,1,2.83-.19,14.91,14.91,0,0,1,2.86.19l.62.16V64.49c0-1-.09-1.35-.58-1.79s-.58-.74-.58-2.23a4.19,4.19,0,0,0-.23-1.84,3.22,3.22,0,0,1-.23-1.53c0-1.21,0-1.37.46-1.37s.47-.16.47-.7.07-.69.81-.69h.81v-3h3.21l.16,1.16.16,1.16h3.65L43,52.48l.17-1.16h3.18Z"/><path class="cls-1" d="M57.89,70.13c-.19,0-.44-.35-.58-.76a6.55,6.55,0,0,0-2.7-2.79,9.56,9.56,0,0,0-6.94-.23c-1.39.44-3.09,2-3.3,3-.09.42-.28.74-.46.74a.56.56,0,0,0-.47.82c.12.3,1.26.34,7.46.34h7.31v-.58C58.21,70.37,58.08,70.13,57.89,70.13Z"/><path class="cls-1" d="M22.84,47.58,21.4,46.05,23,43.75c1.37-2,1.58-2.42,1.46-3.07a3.76,3.76,0,0,1,.44-2,8.93,8.93,0,0,0,.72-2,1.78,1.78,0,0,1,.68-1.09c.41-.28.6-.72.83-2,.3-1.72.77-2.09.54-.42-.12.77,0,1,.27,1.35.63.53,1.7.76,1.84.39S32,24.51,32,24.19s-1.21-.47-1.84-.23a1.47,1.47,0,0,0-.76.88c-.17.49-.35.67-.63.6A28.43,28.43,0,0,0,24,24.65c-.39.16-1.18,4-1,4.83a3.13,3.13,0,0,0,.72,1.28l.58.63L24,33.15c-.32,1.61-.32,1.82,0,2.05s.3.39,0,1.28c-.51,1.64-1.14,2.78-1.47,2.67-.6-.24-1.07.21-2.62,2.53l-1.6,2.39-2.05-.56c-2.83-.79-2.86-.79-3.48.12a17,17,0,0,0-1.84,5.95l-.16,1.53,1,1a6,6,0,0,0,1.19,1c.41,0,.14-.84-.51-1.51l-.68-.7.33-1.51A13.39,13.39,0,0,1,13.9,45c.27-.37.51-.37,2.81-.09a12.54,12.54,0,0,1,2.81.58,23.75,23.75,0,0,1,1.62,2.23l1.3,2-.6,1a9.81,9.81,0,0,1-2.7,3c-.92.72-1.25.86-1.85.75-1.35-.21-1.65-.19-1.75.09s1.56,1,2.4,1a5.28,5.28,0,0,0,1.86-.89,18.87,18.87,0,0,0,4.13-4C24.53,49.69,24.37,49.18,22.84,47.58Z"/><path class="cls-1" d="M69.83,44.58c-.84-2-.79-2-3.16-1.32-1.14.32-2.25.63-2.49.67s-.88-.6-2.09-2.37c-1.46-2.09-1.78-2.44-2.3-2.39s-.83-.26-1.58-2.39c-.37-1.07-.37-1.23-.07-1.56s.31-.53,0-2.11l-.35-1.77.56-.6a3.11,3.11,0,0,0,.7-1.26c.18-.83-.56-4.64-.93-4.8a26,26,0,0,0-4.58.74c-.44.11-.58,0-.81-.58a1.62,1.62,0,0,0-.77-.88c-.67-.26-1.86-.07-1.86.27,0,.14.52,2.68,1.12,5.6l1.11,5.34.7-.07c1.12-.13,1.56-.69,1.4-1.83-.24-1.67.25-1.32.58.42.23,1.28.41,1.72.83,2a1.11,1.11,0,0,1,.54.74,10.56,10.56,0,0,0,.69,2,4.29,4.29,0,0,1,.54,2.26c-.1.53.16,1.06,1.48,3l1.63,2.39-1.37,1.4c-1.65,1.69-1.79,2.11-1,3.27A18.8,18.8,0,0,0,62.81,55a2.41,2.41,0,0,0,2.58.16c1.74-.51,1.56-1.16-.21-.83A1.81,1.81,0,0,1,63.32,54a11.55,11.55,0,0,1-3.08-3.33l-.59-1,1.42-2.09a9.47,9.47,0,0,1,2-2.3,18.87,18.87,0,0,1,2.79-.35l2.28-.14L69,46.58a15,15,0,0,1,1.09,3.11c.19,1.23.16,1.3-.51,2-.46.49-.65.86-.56,1.14s.3.23,1.16-.51,1-1,1-2.14A16.81,16.81,0,0,0,69.83,44.58Z"/><path class="cls-1" d="M50.69,30.44c-.63-3.14-1.26-6-1.42-6.42a4.11,4.11,0,0,0-2.44-2.11c-.44-.09-.69-.35-.9-.93-.47-1.28-1.14-1.48-5-1.48-3.23,0-3.37,0-4,.58a3.24,3.24,0,0,0-.84,1.13.88.88,0,0,1-.78.68,3.83,3.83,0,0,0-2.47,2.32c-.18.54-.83,3.44-1.44,6.46-1.07,5.34-1.09,5.53-.69,6.13s2.39,1.67,2.6,1.44a13.77,13.77,0,0,0-.49-2.65c-.09-.37,0-.53.23-.53s.35,0,.35.09.37,1.91.81,4.11c.75,3.7.89,4.09,1.51,4.69l.7.63h4.44c3.48,0,4.55-.07,5.08-.35a2.3,2.3,0,0,0,1-.88c.23-.42,1.81-7.48,1.83-8.11,0-.11.16-.18.35-.18.42,0,.42-.05,0,1.81-.32,1.44-.3,1.46.19,1.3a4,4,0,0,0,2.16-1.39C51.78,36.17,51.76,35.94,50.69,30.44Zm-4.42-.27a6.54,6.54,0,0,1-3.55,3.27,4.64,4.64,0,0,1-3.42,0,9.67,9.67,0,0,1-2.5-1.74c-1.44-1.93-1.71-3.55-.86-4.71s3.57-1.54,5.08-1.54,3.61.18,5,1.47A3,3,0,0,1,46.27,30.17Z"/></g></g></g></svg>