<svg width="199" height="136" xmlns="http://www.w3.org/2000/svg" viewBox="0 0 199.25 136.3">
    <path fill="#444444" d="M22.82,136H19.24V124.35l-6.31,11.09a1.44,1.44,0,0,1-.65.64,1.81,1.81,0,0,1-.89.22,1.76,1.76,0,0,1-.87-.22,1.52,1.52,0,0,1-.64-.64L3.55,124.35V136H0V117.94a1.76,1.76,0,0,1,.36-1.09,1.74,1.74,0,0,1,1-.64,1.63,1.63,0,0,1,.58,0,1.75,1.75,0,0,1,.55.12,1.86,1.86,0,0,1,.49.29,1.73,1.73,0,0,1,.36.44l8.1,14.07L19.48,117a1.8,1.8,0,0,1,.87-.74,1.91,1.91,0,0,1,1.16-.06,1.79,1.79,0,0,1,.94.64,1.71,1.71,0,0,1,.37,1.09Z" />
    <path fill="#444444" d="M30.16,118.22H26.61V115h3.55Zm0,17.81H26.61V121.25h3.55Z" />
    <path fill="#444444" d="M37.17,136H33.62V115h3.55Zm13.76,0H45.8l-7.16-6.92a1.63,1.63,0,0,1-.56-1.36,1.7,1.7,0,0,1,.67-1.29l6.49-5.24h5.69L42.56,128Z" />
    <path fill="#444444" d="M68.35,126.15a5.6,5.6,0,0,1-.26,1.59,4.92,4.92,0,0,1-.84,1.58,4.78,4.78,0,0,1-1.52,1.23,4.86,4.86,0,0,1-2.28.49H57v-3.38h6.41a1.41,1.41,0,0,0,1.12-.44,1.57,1.57,0,0,0,.4-1.1,1.4,1.4,0,0,0-.45-1.1,1.55,1.55,0,0,0-1.07-.39H57a1.44,1.44,0,0,0-1.12.44,1.59,1.59,0,0,0-.4,1.1v5a1.38,1.38,0,0,0,.45,1.1,1.55,1.55,0,0,0,1.1.4h6.38V136H57a5.6,5.6,0,0,1-1.59-.26,4.69,4.69,0,0,1-1.59-.84,4.53,4.53,0,0,1-1.22-1.52,4.79,4.79,0,0,1-.5-2.27v-5a5.61,5.61,0,0,1,.26-1.6,4.86,4.86,0,0,1,.85-1.58,4.63,4.63,0,0,1,1.51-1.23,5,5,0,0,1,2.28-.49h6.41a5.6,5.6,0,0,1,1.59.26,4.69,4.69,0,0,1,1.59.84,4.63,4.63,0,0,1,1.22,1.52A4.8,4.8,0,0,1,68.35,126.15Z" />
    <path fill="#444444" d="M72.64,124.14H70.15l1.26-6.89h3.36Z" />
    <path fill="#444444" d="M91.29,131a5.3,5.3,0,0,1-.24,1.65,4.74,4.74,0,0,1-.61,1.28,4.25,4.25,0,0,1-.89.95,5,5,0,0,1-1.06.63,4.71,4.71,0,0,1-1.12.36,5.23,5.23,0,0,1-1.07.12H76.67v-3.55h9.6a1.5,1.5,0,0,0,1.09-.37,1.45,1.45,0,0,0,.37-1.07,1.29,1.29,0,0,0-1.43-1.42H80.79a4.48,4.48,0,0,1-2-.41,4.11,4.11,0,0,1-1.33-1,4,4,0,0,1-.74-1.32,4.48,4.48,0,0,1-.23-1.33,4.32,4.32,0,0,1,.43-2A4.12,4.12,0,0,1,78,122.21a4.17,4.17,0,0,1,1.4-.73,4.93,4.93,0,0,1,1.41-.23h8.73v3.56H80.81a1.27,1.27,0,0,0-.43.06.5.5,0,0,0-.23.16.47.47,0,0,0-.09.22,1.77,1.77,0,0,0,0,.23.77.77,0,0,0,.08.34.49.49,0,0,0,.17.18.86.86,0,0,0,.23.06H86.3a5,5,0,0,1,2.32.5,4.67,4.67,0,0,1,1.55,1.23,5,5,0,0,1,.85,1.62A5.6,5.6,0,0,1,91.29,131Z" />
    <path fill="#444444" d="M126.1,136h-3.59V124.35l-6.3,11.09a1.44,1.44,0,0,1-.65.64,1.83,1.83,0,0,1-.89.22,1.76,1.76,0,0,1-.87-.22,1.52,1.52,0,0,1-.64-.64l-6.33-11.09V136h-3.55V117.94a1.76,1.76,0,0,1,.36-1.09,1.74,1.74,0,0,1,1-.64,1.58,1.58,0,0,1,.57,0,1.75,1.75,0,0,1,.56.12,1.66,1.66,0,0,1,.48.29,1.58,1.58,0,0,1,.37.44l8.1,14.07L122.76,117a1.8,1.8,0,0,1,.87-.74,1.88,1.88,0,0,1,1.15-.06,1.8,1.8,0,0,1,1.32,1.73Z" />
    <path fill="#444444" d="M145.63,126.15a5.27,5.27,0,0,1-.26,1.59,4.56,4.56,0,0,1-.84,1.58,4.68,4.68,0,0,1-1.52,1.23,4.79,4.79,0,0,1-2.27.49h-6.41v-3.38h6.41a1.42,1.42,0,0,0,1.12-.44,1.62,1.62,0,0,0,.4-1.1,1.4,1.4,0,0,0-.45-1.1,1.55,1.55,0,0,0-1.07-.39h-6.41a1.42,1.42,0,0,0-1.12.44,1.59,1.59,0,0,0-.4,1.1v5a1.41,1.41,0,0,0,.44,1.1,1.59,1.59,0,0,0,1.1.4h6.39V136h-6.41a5.61,5.61,0,0,1-1.6-.26,4.56,4.56,0,0,1-1.58-.84,4.68,4.68,0,0,1-1.23-1.52,4.91,4.91,0,0,1-.49-2.27v-5a5.61,5.61,0,0,1,.26-1.6,4.65,4.65,0,0,1,.84-1.58,4.78,4.78,0,0,1,1.52-1.23,4.93,4.93,0,0,1,2.28-.49h6.41a5.6,5.6,0,0,1,1.59.26,4.69,4.69,0,0,1,1.59.84,4.9,4.9,0,0,1,1.22,1.52A4.8,4.8,0,0,1,145.63,126.15Z" />
    <path fill="#444444" d="M162.34,136H152.7a5.79,5.79,0,0,1-1.61-.26,4.67,4.67,0,0,1-1.62-.85,4.72,4.72,0,0,1-1.75-3.88v-4.81a5.16,5.16,0,0,1,.12-1.07,6,6,0,0,1,.36-1.11,5.54,5.54,0,0,1,.64-1.06,4,4,0,0,1,.94-.89,4.91,4.91,0,0,1,1.28-.62,5.51,5.51,0,0,1,1.64-.23h9.64v3.56H152.7a1.44,1.44,0,0,0-1.06.35,1.48,1.48,0,0,0-.36,1.09V131a1.45,1.45,0,0,0,.37,1.07,1.47,1.47,0,0,0,1.08.37h9.61Z" />
    <path fill="#444444" d="M168.89,136h-3.56V115h3.56Zm12.82,0h-3.55v-9.8a1.43,1.43,0,0,0-.36-1.06,1.42,1.42,0,0,0-1.06-.36h-6.42v-3.56h6.42a5.07,5.07,0,0,1,1.06.12,5.84,5.84,0,0,1,1.12.36,5.07,5.07,0,0,1,1.06.64,4.21,4.21,0,0,1,.89.94,4.74,4.74,0,0,1,.61,1.28,5.2,5.2,0,0,1,.23,1.64Z" />
    <path fill="#444444" d="M199.25,131a5.31,5.31,0,0,1-.23,1.65,4.74,4.74,0,0,1-.61,1.28,4.49,4.49,0,0,1-.89.95,5,5,0,0,1-1.06.63,4.86,4.86,0,0,1-1.12.36,5.25,5.25,0,0,1-1.08.12h-9.62v-3.55h9.6a1.51,1.51,0,0,0,1.09-.37,1.45,1.45,0,0,0,.37-1.07,1.3,1.3,0,0,0-1.44-1.42h-5.51a4.44,4.44,0,0,1-2-.41,4.27,4.27,0,0,1-1.34-1,3.92,3.92,0,0,1-.73-1.32,4.48,4.48,0,0,1-.23-1.33,4.32,4.32,0,0,1,.42-2,4.14,4.14,0,0,1,1.07-1.32,4.08,4.08,0,0,1,1.4-.73,4.92,4.92,0,0,1,1.4-.23h8.74v3.56h-8.71a1.27,1.27,0,0,0-.43.06.5.5,0,0,0-.23.16.47.47,0,0,0-.09.22,1.77,1.77,0,0,0,0,.23.66.66,0,0,0,.08.34.42.42,0,0,0,.17.18.77.77,0,0,0,.23.06h5.76a5,5,0,0,1,2.33.5,4.53,4.53,0,0,1,1.54,1.23,5.07,5.07,0,0,1,.86,1.62A5.57,5.57,0,0,1,199.25,131Z" />
    <path fill="#444444" d="M99,94.63,58,71V23.66L99,0l41,23.66V71ZM60,69.82l39,22.5,39-22.5v-45L99,2.31,60,24.81Z" />
    <path fill="#444444" d="M96.41,70.13c-.21,0-.54-.39-.75-.93a6.08,6.08,0,0,0-3.44-3,10.72,10.72,0,0,0-6.22.14c-1.44.56-3.21,2.23-3.21,3.07a.61.61,0,0,1-.46.6.63.63,0,0,0-.46.68v.55l7.38,0,7.37-.07.06-.51C96.73,70.3,96.64,70.13,96.41,70.13Z" />
    <path fill="#444444" d="M104.4,51.32v3h.81c.74,0,.81,0,.81.69s.1.7.47.7.46.16.46,1.51c0,.86-.09,1.51-.23,1.51s-.23.74-.23,1.74c0,1.54-.07,1.79-.58,2.3a2,2,0,0,0-.58,1.77c0,1.16,0,1.16.65,1a21.9,21.9,0,0,1,5.83,0l.79.19-.12-1.19a2.8,2.8,0,0,0-.63-1.72c-.42-.46-.49-.81-.49-2.3,0-1.18-.09-1.79-.27-1.88-.45-.16-.26-3,.18-3,.21,0,.33-.25.33-.7s.11-.69.23-.69a1.9,1.9,0,0,0,.81-.58c.56-.54.58-.7.58-3.46a25.29,25.29,0,0,0-.14-3.28c-.32-.84-1.32-1-5.08-1h-3.6v3h-2.93l.09-.82c.1-.72.19-.81.77-.81s.67,0,.67-1v-1H95.28a7.85,7.85,0,0,0,0,1.46c.07.49.23.63.65.63s.56.14.56.44a2.92,2.92,0,0,0,.14.81c.11.33-.09.38-1.4.38H93.71V46l-4,.07c-5,.1-4.86-.07-4.86,3.9,0,3.07.19,3.84,1.05,4.23a.87.87,0,0,1,.58.93c0,.49.12.65.47.65s.46.16.46,1.37a3,3,0,0,1-.23,1.54A4.32,4.32,0,0,0,87,60.45c0,1.41-.07,1.72-.56,2.23s-.68,1-.63,2.3c0,.69.07.74.67.58a14.52,14.52,0,0,1,2.84-.19,15,15,0,0,1,2.86.19l.62.16V64.49c0-1-.09-1.35-.58-1.79s-.58-.74-.58-2.23a4.1,4.1,0,0,0-.23-1.83,3.31,3.31,0,0,1-.23-1.54c0-1.21,0-1.37.46-1.37s.47-.16.47-.7.07-.69.81-.69h.81v-3h3.21l.16,1.16.16,1.16h3.65l.16-1.16.16-1.16h3.19Z" />
    <path fill="#444444" d="M115.92,70.13c-.19,0-.44-.35-.58-.76a6.6,6.6,0,0,0-2.7-2.79,9.56,9.56,0,0,0-6.94-.23c-1.4.44-3.09,2-3.3,3-.09.42-.28.74-.47.74a.56.56,0,0,0-.46.82c.12.3,1.25.34,7.46.34h7.31v-.58C116.24,70.37,116.1,70.13,115.92,70.13Z" />
    <path fill="#444444" d="M80.87,47.58l-1.44-1.53L81,43.75c1.37-2,1.58-2.42,1.46-3.07a3.76,3.76,0,0,1,.44-2,8.93,8.93,0,0,0,.72-2,1.81,1.81,0,0,1,.67-1.09c.42-.28.61-.72.84-2,.3-1.72.77-2.09.53-.42-.11.77,0,1,.28,1.35.63.53,1.7.76,1.84.39S90,24.51,90,24.19s-1.21-.47-1.84-.23a1.52,1.52,0,0,0-.77.88c-.16.49-.34.67-.62.6a28.43,28.43,0,0,0-4.72-.79c-.39.16-1.18,4-1,4.83a3.13,3.13,0,0,0,.72,1.28l.58.63L82,33.15c-.32,1.61-.32,1.82,0,2.05s.3.39,0,1.28c-.51,1.64-1.13,2.78-1.46,2.67-.6-.24-1.07.21-2.62,2.53l-1.61,2.39-2-.56c-2.83-.79-2.86-.79-3.48.12A17,17,0,0,0,69,49.58l-.16,1.53,1,1a6.41,6.41,0,0,0,1.18,1c.42,0,.14-.84-.51-1.51l-.67-.7.32-1.51A13.83,13.83,0,0,1,71.92,45c.28-.37.51-.37,2.81-.09a12.39,12.39,0,0,1,2.81.58,21.45,21.45,0,0,1,1.63,2.23l1.3,2-.6,1a9.81,9.81,0,0,1-2.7,3c-.93.72-1.25.86-1.86.75-1.34-.21-1.64-.19-1.74.09s1.56,1,2.4,1a5.18,5.18,0,0,0,1.85-.89,18.71,18.71,0,0,0,4.14-4C82.56,49.69,82.4,49.18,80.87,47.58Z" />
    <path fill="#444444" d="M127.86,44.58c-.84-2-.79-2-3.16-1.32-1.14.32-2.26.63-2.49.67s-.88-.6-2.09-2.37c-1.46-2.09-1.79-2.44-2.3-2.39s-.83-.26-1.58-2.39c-.37-1.07-.37-1.23-.07-1.56s.31-.53,0-2.11l-.35-1.77.56-.6a3.11,3.11,0,0,0,.7-1.26c.18-.83-.56-4.64-.93-4.8a26,26,0,0,0-4.58.74c-.44.11-.58,0-.81-.58A1.62,1.62,0,0,0,110,24c-.67-.26-1.86-.07-1.86.27,0,.14.51,2.68,1.12,5.6l1.11,5.34.7-.07a1.39,1.39,0,0,0,1.39-1.83c-.23-1.67.26-1.32.58.42.24,1.28.42,1.72.84,2a1.09,1.09,0,0,1,.53.74,10.89,10.89,0,0,0,.7,2,4.29,4.29,0,0,1,.54,2.26c-.1.53.16,1.06,1.48,3l1.63,2.39-1.37,1.4c-1.65,1.69-1.79,2.11-1,3.27A18.61,18.61,0,0,0,120.84,55c1,.56,1.26.58,2.58.16,1.74-.51,1.56-1.16-.21-.83a1.81,1.81,0,0,1-1.86-.37,11.44,11.44,0,0,1-3.09-3.33l-.58-1,1.42-2.09a9.47,9.47,0,0,1,2-2.3,18.67,18.67,0,0,1,2.79-.35l2.27-.14.89,1.81a15,15,0,0,1,1.09,3.11c.18,1.23.16,1.3-.51,2-.47.49-.65.86-.56,1.14s.3.23,1.16-.51,1-1,1-2.14A16.81,16.81,0,0,0,127.86,44.58Z" />
    <path fill="#444444" d="M108.72,30.44c-.63-3.14-1.26-6-1.42-6.41a4.1,4.1,0,0,0-2.44-2.12c-.44-.09-.7-.35-.9-.93-.47-1.28-1.14-1.48-5-1.48-3.23,0-3.37,0-4,.58a3.24,3.24,0,0,0-.84,1.13.89.89,0,0,1-.79.68,3.81,3.81,0,0,0-2.46,2.32c-.18.54-.83,3.44-1.44,6.46-1.07,5.34-1.09,5.53-.7,6.13s2.4,1.67,2.61,1.44a13.91,13.91,0,0,0-.49-2.65c-.09-.37,0-.53.23-.53s.35,0,.35.09.37,1.91.81,4.11c.74,3.7.88,4.09,1.51,4.69l.7.63h4.43c3.49,0,4.56-.07,5.09-.35a2.33,2.33,0,0,0,.95-.88c.24-.42,1.82-7.48,1.84-8.11,0-.11.16-.18.35-.18.42,0,.42-.05,0,1.81-.32,1.44-.3,1.46.19,1.3a4,4,0,0,0,2.16-1.39C109.81,36.17,109.79,35.94,108.72,30.44Zm-4.42-.27a6.57,6.57,0,0,1-3.55,3.27,4.64,4.64,0,0,1-3.42,0,9.89,9.89,0,0,1-2.51-1.74c-1.44-1.93-1.7-3.55-.86-4.71s3.58-1.54,5.09-1.54,3.61.18,5,1.47A3,3,0,0,1,104.3,30.17Z" />
</svg>