<svg enable-background="new 0 0 24 24" height="512" viewBox="0 0 24 24" width="512" xmlns="http://www.w3.org/2000/svg">
    <path fill="#ffffff" d="m19.6 4.9c-.1 0-.2 0-.3-.1-2-1.8-4.6-2.8-7.3-2.8-2.6 0-5.2.9-7.2 2.7-.2.1-.5.1-.7-.1s-.1-.5.1-.7c2.1-1.9 4.9-2.9 7.8-2.9s5.8 1.1 8 3c.2.2.2.5 0 .7-.1.1-.2.2-.4.2z" />
    <path fill="#ffffff" d="m7.5 5h-3c-.3 0-.5-.2-.5-.5v-3c0-.3.2-.5.5-.5s.5.2.5.5v2.5h2.5c.3 0 .5.2.5.5s-.2.5-.5.5z" />
    <path fill="#ffffff" d="m12.1 23c-2.9 0-5.8-1.1-8-3-.2-.2-.2-.5 0-.7s.5-.2.7 0c2 1.8 4.6 2.8 7.3 2.8 2.6 0 5.2-.9 7.2-2.7.2-.2.5-.2.7.1.2.2.2.5-.1.7-2.1 1.8-4.9 2.8-7.8 2.8z" />
    <path fill="#ffffff" d="m19.6 23c-.3 0-.5-.2-.5-.5v-2.5h-2.5c-.3 0-.5-.2-.5-.5s.2-.5.5-.5h3c.3 0 .5.2.5.5v3c0 .3-.2.5-.5.5z" />
    <path fill="#ffffff" d="m5 12c-1.4 0-2.5-1.1-2.5-2.5s1.1-2.5 2.5-2.5 2.5 1.1 2.5 2.5-1.1 2.5-2.5 2.5zm0-4c-.8 0-1.5.7-1.5 1.5s.7 1.5 1.5 1.5 1.5-.7 1.5-1.5-.7-1.5-1.5-1.5z" />
    <path fill="#ffffff" d="m9.5 17c-.3 0-.5-.2-.5-.5v-1c0-.8-.7-1.5-1.5-1.5h-5c-.8 0-1.5.7-1.5 1.5v1c0 .3-.2.5-.5.5s-.5-.2-.5-.5v-1c0-1.4 1.1-2.5 2.5-2.5h5c1.4 0 2.5 1.1 2.5 2.5v1c0 .3-.2.5-.5.5z" />
    <path fill="#ffffff" d="m19 12c-1.4 0-2.5-1.1-2.5-2.5s1.1-2.5 2.5-2.5 2.5 1.1 2.5 2.5-1.1 2.5-2.5 2.5zm0-4c-.8 0-1.5.7-1.5 1.5s.7 1.5 1.5 1.5 1.5-.7 1.5-1.5-.7-1.5-1.5-1.5z" />
    <path fill="#ffffff" d="m23.5 17c-.3 0-.5-.2-.5-.5v-1c0-.8-.7-1.5-1.5-1.5h-5c-.8 0-1.5.7-1.5 1.5v1c0 .3-.2.5-.5.5s-.5-.2-.5-.5v-1c0-1.4 1.1-2.5 2.5-2.5h5c1.4 0 2.5 1.1 2.5 2.5v1c0 .3-.2.5-.5.5z" />
</svg>
