<?xml version="1.0" encoding="iso-8859-1"?>
<svg version="1.1" xmlns="http://www.w3.org/2000/svg" xmlns:xlink="http://www.w3.org/1999/xlink" x="0px" y="0px"
     viewBox="0 0 496 496" style="enable-background:new 0 0 496 496;" xml:space="preserve">
    <path fill="#ffffff" d="M272,240h-16v-16c0-4.418-3.582-8-8-8s-8,3.582-8,8v16h-16c-4.418,0-8,3.582-8,8s3.582,8,8,8h16v16c0,4.418,3.582,8,8,8
        s8-3.582,8-8v-16h16c4.418,0,8-3.582,8-8S276.418,240,272,240z"/>
    <path fill="#ffffff" d="M488,240h-48.2C435.523,140.315,355.685,60.477,256,56.2V8c0-4.418-3.582-8-8-8s-8,3.582-8,8v48.2
        C140.315,60.477,60.477,140.315,56.2,240H8c-4.418,0-8,3.582-8,8s3.582,8,8,8h48.2c4.277,99.685,84.115,179.523,183.8,183.8V488
        c0,4.418,3.582,8,8,8s8-3.582,8-8v-48.2c99.685-4.277,179.523-84.115,183.8-183.8H488c4.418,0,8-3.582,8-8S492.418,240,488,240z
            M376,256h47.8c-4.241,90.859-76.941,163.559-167.8,167.8V376c0-4.418-3.582-8-8-8s-8,3.582-8,8v47.8
        C149.141,419.559,76.441,346.859,72.2,256H120c4.418,0,8-3.582,8-8s-3.582-8-8-8H72.2C76.441,149.141,149.141,76.441,240,72.2
        V120c0,4.418,3.582,8,8,8s8-3.582,8-8V72.2c90.859,4.241,163.559,76.941,167.8,167.8H376c-4.418,0-8,3.582-8,8
        S371.582,256,376,256z"/>
    <path fill="#ffffff" d="M248,160c-48.601,0-88,39.399-88,88c0,48.601,39.399,88,88,88s88-39.399,88-88C335.943,199.423,296.577,160.057,248,160z
            M248,320c-39.764,0-72-32.236-72-72c0-39.765,32.236-72,72-72c39.765,0,72,32.235,72,72
        C319.956,287.746,287.746,319.956,248,320z"/>
</svg>
