<svg xmlns="http://www.w3.org/2000/svg" viewBox="0 0 374.96 512">
    <path fill="#ffffff" d="M328.71,173.05H208.64l-14.75-22.34,18.29-21.85a15.46,15.46,0,0,0,1-18.46L196.35,84.82a51.61,51.61,0,1,0-26,16.82l10.69,16.2-18.28,21.84a15.48,15.48,0,0,0-1.06,18.46l9.84,14.91H46.25A46.3,46.3,0,0,0,0,219.3V465.75A46.3,46.3,0,0,0,46.25,512H328.71A46.31,46.31,0,0,0,375,465.75V219.3A46.31,46.31,0,0,0,328.71,173.05ZM156.55,72.56a20.81,20.81,0,1,1,20.82-20.8A20.84,20.84,0,0,1,156.55,72.56ZM344,465.75a15.33,15.33,0,0,1-15.31,15.3H46.25A15.31,15.31,0,0,1,31,465.75V219.3A15.32,15.32,0,0,1,46.25,204H328.71A15.34,15.34,0,0,1,344,219.3Z"/>
    <path fill="#ffffff" d="M68.77,343.85a15.48,15.48,0,0,0,21.88,0l13.43-13.43,13.44,13.43A15.47,15.47,0,0,0,139.39,322L126,308.54l13.43-13.43a15.47,15.47,0,0,0-21.87-21.88l-13.44,13.43L90.65,273.23a15.47,15.47,0,0,0-21.88,21.88L82.2,308.54,68.77,322A15.48,15.48,0,0,0,68.77,343.85Z"/>
    <path fill="#ffffff" d="M235.56,343.85a15.48,15.48,0,0,0,21.88,0l13.44-13.43,13.42,13.43A15.48,15.48,0,0,0,306.19,322l-13.44-13.43,13.44-13.43a15.48,15.48,0,0,0-21.89-21.88l-13.42,13.43-13.44-13.43a15.47,15.47,0,0,0-21.88,21.88L249,308.54,235.56,322A15.48,15.48,0,0,0,235.56,343.85Z"/>
    <path fill="#ffffff" d="M78.58,443.31l29.13-29.13,28.88,28.89a15.49,15.49,0,0,0,21.89,0l29.12-29.13,28.89,28.89a15.48,15.48,0,0,0,21.88,0l29.12-29.12,28.89,28.88a15.47,15.47,0,0,0,21.88-21.88l-39.83-39.83a15.48,15.48,0,0,0-21.88,0L227.43,410l-28.89-28.89a15.48,15.48,0,0,0-21.88,0l-29.12,29.13-28.89-28.89a15.48,15.48,0,0,0-21.88,0L56.7,421.42a15.48,15.48,0,0,0,21.88,21.89Z"/>
</svg>